<?xml version="1.0" standalone="no"?><!DOCTYPE svg PUBLIC "-//W3C//DTD SVG 1.1//EN" "http://www.w3.org/Graphics/SVG/1.1/DTD/svg11.dtd"><svg t="1552098622315" class="icon" style="" viewBox="0 0 1024 1024" version="1.1" xmlns="http://www.w3.org/2000/svg" p-id="1170" xmlns:xlink="http://www.w3.org/1999/xlink" width="16" height="16"><defs><style type="text/css"></style></defs><path d="M502.316864 948.71655253c-243.93803733 0-442.39532907-198.4800672-442.39532906-442.41810345 0-243.91526293 198.45729173-442.37255467 442.39532906-442.37255574s442.39532907 198.45729173 442.39532907 442.37255573c0 243.93803733-198.45729173 442.41810347-442.39532907 442.41810346z m0-839.21881599c-218.81772587 0-396.84626027 178.00576-396.84626027 396.82348693s178.00576 396.86903573 396.84626027 396.86903467 396.84626027-178.0285344 396.84626134-396.86903467c0-218.81772587-178.00576-396.82348587-396.84626134-396.82348693z" p-id="1171" fill="#ffffff"></path><path d="M632.26835733 530.89494613c-12.82206293 12.3893472-31.11001387 14.25685867-40.85751466 4.16773975l-224.5569088-232.1180544c-9.7475008-10.08911893-7.24230187-28.30874667 5.55698666-40.69809281 12.82206293-12.36657173 31.08723947-14.23408427 40.83474027-4.19051414l224.55690774 232.11805334c9.7475008 10.15744213 7.26507627 28.35429547-5.53421121 40.72086826z" p-id="1172" fill="#ffffff"></path><path d="M633.1110144 483.27339414c12.75373973 12.4804448 15.09951573 30.72284693 5.26091733 40.74364266l-226.03725333 230.63770881c-9.8385984 10.02079467-28.10377493 8.0621856-40.81196479-4.41825921-12.75373973-12.4576704-15.09951573-30.70007253-5.26091734-40.74364266l226.01447893-230.6377088c9.88414827-10.02079467 28.1493248-8.01663573 40.8347392 4.4182592z" p-id="1173" fill="#ffffff"></path></svg>